<svg width="17" height="20" viewBox="0 0 17 20" fill="none" xmlns="http://www.w3.org/2000/svg">
<path d="M6.07143 1.25V2.5H10.9286V1.25C10.9286 0.559766 11.4712 0 12.1429 0C12.8145 0 13.3571 0.559766 13.3571 1.25V2.5H15.1786C16.1842 2.5 17 3.33945 17 4.375V6.25H0V4.375C0 3.33945 0.815469 2.5 1.82143 2.5H3.64286V1.25C3.64286 0.559766 4.18549 0 4.85714 0C5.52879 0 6.07143 0.559766 6.07143 1.25ZM0 7.5H17V18.125C17 19.1602 16.1842 20 15.1786 20H1.82143C0.815469 20 0 19.1602 0 18.125V7.5ZM12.4502 11.8789C12.8373 11.5469 12.8373 10.9531 12.4502 10.5859C12.1277 10.2227 11.5509 10.2227 11.1942 10.5859L7.58929 14.3008L5.77165 12.4609C5.44911 12.0977 4.87232 12.0977 4.51563 12.4609C4.16272 12.8281 4.16272 13.4219 4.51563 13.7539L6.9442 16.2539C7.30089 16.6523 7.87768 16.6523 8.20022 16.2539L12.4502 11.8789Z" fill="#36325A"/>
</svg>
