<svg width="13" height="14" viewBox="0 0 13 14" fill="none" xmlns="http://www.w3.org/2000/svg">
<path d="M12.6181 11.4714C13.1259 12.0017 13.1259 12.8608 12.6181 13.3911C12.3663 13.6562 12.0331 13.7878 11.7 13.7878C11.3669 13.7878 11.0346 13.6552 10.7811 13.39L6.5 8.92169L2.21934 13.389C1.96544 13.6562 1.63272 13.7878 1.3 13.7878C0.967281 13.7878 0.634969 13.6562 0.380859 13.389C-0.126953 12.8587 -0.126953 11.9996 0.380859 11.4693L4.66273 6.99776L0.380859 2.52836C-0.126953 1.99806 -0.126953 1.13897 0.380859 0.608665C0.888672 0.0783617 1.71133 0.0783617 2.21914 0.608665L6.5 5.0823L10.7819 0.610786C11.2897 0.0804831 12.1123 0.0804831 12.6202 0.610786C13.128 1.14109 13.128 2.00018 12.6202 2.53048L8.33828 7.002L12.6181 11.4714Z" fill="#709FB0"/>
</svg>
