<svg width="92" height="50" viewBox="0 0 92 50" fill="none" xmlns="http://www.w3.org/2000/svg">
<path d="M77.4063 19.3886C77.4063 20.5598 77.1785 21.5297 76.7228 22.2983C76.2853 23.0669 75.7203 23.68 75.0276 24.1375C74.335 24.6133 73.5512 24.9427 72.6763 25.1257C71.8196 25.3087 70.972 25.4002 70.1336 25.4002H68.5204V22.7101H70.1062C70.6166 22.7101 71.1178 22.6643 71.61 22.5728C72.1204 22.4813 72.576 22.3166 72.977 22.0787C73.3598 21.8225 73.6697 21.4839 73.9066 21.063C74.1618 20.6238 74.2894 20.0657 74.2894 19.3886C74.2894 18.7847 74.1527 18.2814 73.8793 17.8788C73.6059 17.4762 73.2596 17.1468 72.8403 16.8906C72.4029 16.6344 71.9199 16.4514 71.3913 16.3416C70.8627 16.2318 70.3341 16.1769 69.8055 16.1769H67.5362V33.2784H64.5833V13.5417H69.8328C70.7442 13.5417 71.6464 13.6332 72.5396 13.8162C73.451 13.9992 74.2621 14.3103 74.973 14.7495C75.702 15.207 76.2853 15.8109 76.7228 16.5612C77.1785 17.3115 77.4063 18.254 77.4063 19.3886Z" fill="#4A47A3"/>
<path d="M91.6666 16.2043H86.1711V33.3333H83.1635V16.2043H77.7227V13.5966H91.6666V16.2043Z" fill="#4A47A3"/>
<path d="M2.08331 5.30303C2.08331 2.37425 4.45756 0 7.38634 0H46.7803C49.7091 0 52.0833 2.37425 52.0833 5.30303V44.697C52.0833 47.6258 49.7091 50 46.7803 50H7.38634C4.45756 50 2.08331 47.6258 2.08331 44.697V5.30303Z" fill="#4A47A3"/>
<g clip-path="url(#clip0_1_9)">
<path d="M36.6793 17.9689C34.5003 17.9689 32.7336 19.7179 32.7336 21.8751C32.7336 23.4786 33.7106 24.8526 35.1064 25.4547V29.2974C35.1064 32.0928 32.628 34.3755 29.5824 34.3755C26.6231 34.3755 24.1916 32.2222 24.0634 29.5303C27.6091 28.7989 30.3661 25.6495 30.3661 21.8311V14.2868C30.3661 13.7311 29.9642 13.2428 29.4152 13.1393L26.3119 12.5235C25.6708 12.3953 25.0523 12.805 24.923 13.44L24.7632 14.2086C24.6338 14.8434 25.0499 15.4581 25.691 15.5866L27.2046 15.8824V21.8116C27.2046 24.3936 25.1267 26.5298 22.5127 26.5543C19.8799 26.5787 17.7379 24.4762 17.7379 21.8702L17.7345 15.8873L19.2496 15.5889C19.8908 15.4668 20.3056 14.8492 20.1759 14.2144L20.0235 13.4459C19.9002 12.8112 19.2762 12.4005 18.6351 12.529L15.5342 13.1344C14.9853 13.2443 14.5833 13.7252 14.5833 14.2868V21.8746C14.5833 25.6466 17.3014 28.8082 20.9014 29.5308C21.0296 33.9502 24.8717 37.5 29.577 37.5C34.3612 37.5 38.2576 33.8198 38.2576 29.2969V25.4542C39.6499 24.8507 40.625 23.4786 40.625 21.8775C40.625 19.7169 38.8593 17.9689 36.6793 17.9689ZM36.6793 23.047C36.0258 23.047 35.4956 22.5221 35.4956 21.8751C35.4956 21.2281 36.0233 20.7032 36.6793 20.7032C37.3352 20.7032 37.863 21.2257 37.863 21.8751C37.863 22.5245 37.3352 23.047 36.6793 23.047Z" fill="#FEFEFF"/>
</g>
<defs>
<clipPath id="clip0_1_9">
<rect width="39.5833" height="35.4167" fill="white" transform="translate(0 7.29166)"/>
</clipPath>
</defs>
</svg>
