<svg width="25" height="22" viewBox="0 0 25 22" fill="none" xmlns="http://www.w3.org/2000/svg">
<g clip-path="url(#clip0_1_137)">
<path d="M12.1354 6.89219C12.2569 6.8793 12.3785 6.875 12.5 6.875C14.8003 6.875 16.6667 8.68398 16.6667 11C16.6667 13.2773 14.8003 15.125 12.5 15.125C10.1606 15.125 8.33334 13.2773 8.33334 11C8.33334 10.8797 8.33768 10.7594 8.3507 10.6391C8.75434 10.8324 9.22309 11 9.72223 11C11.2543 11 12.5 9.7668 12.5 8.25C12.5 7.75586 12.3307 7.2918 12.1354 6.89219ZM20.8594 4.83828C22.8906 6.70312 24.2491 8.89883 24.8915 10.4715C25.0347 10.8109 25.0347 11.1891 24.8915 11.5285C24.2491 13.0625 22.8906 15.2582 20.8594 17.1617C18.8151 19.0437 16.0069 20.625 12.5 20.625C8.99306 20.625 6.1849 19.0437 4.1415 17.1617C2.11025 15.2582 0.752609 13.0625 0.10682 11.5285C-0.0356065 11.1891 -0.0356065 10.8109 0.10682 10.4715C0.752609 8.89883 2.11025 6.70312 4.1415 4.83828C6.1849 2.95797 8.99306 1.375 12.5 1.375C16.0069 1.375 18.8151 2.95797 20.8594 4.83828ZM12.5 4.8125C9.04948 4.8125 6.25 7.58398 6.25 11C6.25 14.416 9.04948 17.1875 12.5 17.1875C15.9505 17.1875 18.75 14.416 18.75 11C18.75 7.58398 15.9505 4.8125 12.5 4.8125Z" fill="#4A47A3"/>
</g>
<defs>
<clipPath id="clip0_1_137">
<rect width="25" height="22" fill="white"/>
</clipPath>
</defs>
</svg>
