<svg width="17" height="17" viewBox="0 0 17 17" fill="none" xmlns="http://www.w3.org/2000/svg">
<path d="M15.4062 3.1875H9.03125L6.90625 1.0625H1.59375C0.713867 1.0625 0 1.77637 0 2.65625V14.3438C0 15.2236 0.713867 15.9375 1.59375 15.9375H15.4062C16.2861 15.9375 17 15.2236 17 14.3438V4.78125C17 3.90137 16.2861 3.1875 15.4062 3.1875ZM11.6875 10.1701C11.6875 10.4225 11.485 10.625 11.2326 10.625L9.5625 10.5951V12.2649C9.5625 12.5475 9.35996 12.75 9.10762 12.75H7.89238C7.64004 12.75 7.4375 12.5475 7.4375 12.2951V10.5951L5.76738 10.625C5.51504 10.625 5.3125 10.4225 5.3125 10.1701V8.95488C5.3125 8.70254 5.51504 8.5 5.76738 8.5H7.4375V6.82988C7.4375 6.57754 7.64004 6.375 7.89238 6.375H9.10662C9.35996 6.375 9.5625 6.57754 9.5625 6.82988V8.5H11.2323C11.485 8.5 11.6875 8.70254 11.6875 8.95488V10.1701Z" fill="#36325A"/>
</svg>
