<svg width="74" height="9" viewBox="0 0 74 9" fill="none" xmlns="http://www.w3.org/2000/svg">
<path d="M1 3.23532L3.53523 6.17825C3.80636 6.49298 4.14308 6.74654 4.5225 6.9217C4.90193 7.09685 5.31518 7.1895 5.73417 7.19335C6.15317 7.19719 6.5681 7.11215 6.95077 6.94399C7.33344 6.77583 7.6749 6.52849 7.95193 6.21879L11.6384 2.09764C11.9147 1.78868 12.2553 1.5418 12.6368 1.37367C13.0184 1.20554 13.4322 1.1201 13.8502 1.12312C14.2682 1.12613 14.6807 1.21754 15.0598 1.39115C15.4388 1.56477 15.7756 1.81654 16.0474 2.12945L19.6115 6.23294C19.881 6.54327 20.2146 6.79349 20.5899 6.96695C20.9652 7.14041 21.3738 7.23313 21.7883 7.23895C22.2029 7.24477 22.6139 7.16355 22.9941 7.00069C23.3743 6.83784 23.715 6.59708 23.9934 6.29445L25.3827 4.78419C25.8295 4.29854 26.4312 3.97776 27.0883 3.87498C27.7454 3.77219 28.4184 3.89355 28.9959 4.21898L33.5235 6.77029C33.9212 6.99442 34.3669 7.12318 34.8245 7.14618C35.2821 7.16917 35.7387 7.08574 36.1575 6.90264C36.5763 6.71954 36.9455 6.44191 37.2352 6.0922C37.5249 5.74248 37.727 5.33051 37.8252 4.88959L38.1851 3.27271C38.3275 2.63264 38.6874 2.05966 39.2054 1.64855C39.7233 1.23745 40.3682 1.01288 41.0333 1.01199L50.1905 1C50.8123 0.999175 51.4181 1.19393 51.9196 1.5559L60.0799 7.44411C60.5881 7.81084 61.2031 8.0058 61.8331 7.99987C62.463 7.99394 63.0741 7.78745 63.5751 7.41122L67.1164 4.75213C67.625 4.3702 68.2468 4.16335 68.8863 4.16334H72.9987" stroke="#4A47A3" stroke-opacity="0.2" stroke-width="2" stroke-linecap="round" stroke-linejoin="round"/>
</svg>
