<svg width="92" height="18" viewBox="0 0 92 18" fill="none" xmlns="http://www.w3.org/2000/svg">
<path d="M14.625 11.25H3.375C2.75379 11.25 2.25 11.7538 2.25 12.375V16.875C2.25 17.4962 2.75379 18 3.375 18H14.625C15.2462 18 15.75 17.4962 15.75 16.875V12.375C15.75 11.7527 15.2473 11.25 14.625 11.25ZM14.625 16.875H3.375V12.375H14.625V16.875ZM15.75 6.75V2.48309C15.75 2.18461 15.6305 1.89844 15.4195 1.6875L14.0614 0.329414C13.8199 0.118477 13.5668 0 13.268 0H4.5C3.25723 0 2.25 1.00723 2.25 2.25V6.75C1.00898 6.75 0 7.75898 0 9V12.9375C0 13.2469 0.251578 13.5 0.5625 13.5C0.873422 13.5 1.125 13.2469 1.125 12.9375V9C1.125 8.37879 1.62879 7.875 2.25 7.875H15.75C16.3712 7.875 16.875 8.37879 16.875 9V12.9375C16.875 13.2484 17.1266 13.5 17.4375 13.5C17.7484 13.5 18 13.2484 18 12.9375V9C18 7.75898 16.991 6.75 15.75 6.75ZM14.625 6.75H3.375V2.25C3.375 1.62879 3.87879 1.125 4.5 1.125H13.268L14.625 2.48309V6.75ZM15.1875 8.71875C14.7217 8.71875 14.3438 9.09633 14.3438 9.5625C14.3438 10.0283 14.7217 10.4062 15.1875 10.4062C15.6533 10.4062 16.0312 10.0283 16.0312 9.5625C16.0312 9.09492 15.6551 8.71875 15.1875 8.71875Z" fill="#4A47A3"/>
<path d="M38.1913 7.288C38.1913 7.776 38.0793 8.224 37.8553 8.632C37.6313 9.032 37.2873 9.356 36.8233 9.604C36.3593 9.852 35.7833 9.976 35.0953 9.976H33.8233V13H31.7713V4.576H35.0953C35.7673 4.576 36.3353 4.692 36.7993 4.924C37.2633 5.156 37.6113 5.476 37.8433 5.884C38.0753 6.292 38.1913 6.76 38.1913 7.288ZM34.9393 8.344C35.3313 8.344 35.6233 8.252 35.8153 8.068C36.0073 7.884 36.1033 7.624 36.1033 7.288C36.1033 6.952 36.0073 6.692 35.8153 6.508C35.6233 6.324 35.3313 6.232 34.9393 6.232H33.8233V8.344H34.9393ZM41.3116 7.42C41.5516 7.052 41.8516 6.764 42.2116 6.556C42.5716 6.34 42.9716 6.232 43.4116 6.232V8.404H42.8476C42.3356 8.404 41.9516 8.516 41.6956 8.74C41.4396 8.956 41.3116 9.34 41.3116 9.892V13H39.2596V6.304H41.3116V7.42ZM45.4244 5.608C45.0644 5.608 44.7684 5.504 44.5364 5.296C44.3124 5.08 44.2004 4.816 44.2004 4.504C44.2004 4.184 44.3124 3.92 44.5364 3.712C44.7684 3.496 45.0644 3.388 45.4244 3.388C45.7764 3.388 46.0644 3.496 46.2884 3.712C46.5204 3.92 46.6364 4.184 46.6364 4.504C46.6364 4.816 46.5204 5.08 46.2884 5.296C46.0644 5.504 45.7764 5.608 45.4244 5.608ZM46.4444 6.304V13H44.3924V6.304H46.4444ZM52.0115 6.232C52.7955 6.232 53.4195 6.488 53.8835 7C54.3555 7.504 54.5915 8.2 54.5915 9.088V13H52.5515V9.364C52.5515 8.916 52.4355 8.568 52.2035 8.32C51.9715 8.072 51.6595 7.948 51.2675 7.948C50.8755 7.948 50.5635 8.072 50.3315 8.32C50.0995 8.568 49.9835 8.916 49.9835 9.364V13H47.9315V6.304H49.9835V7.192C50.1915 6.896 50.4715 6.664 50.8235 6.496C51.1755 6.32 51.5715 6.232 52.0115 6.232ZM59.7494 11.26V13H58.7054C57.9614 13 57.3814 12.82 56.9654 12.46C56.5494 12.092 56.3414 11.496 56.3414 10.672V8.008H55.5254V6.304H56.3414V4.672H58.3934V6.304H59.7374V8.008H58.3934V10.696C58.3934 10.896 58.4414 11.04 58.5374 11.128C58.6334 11.216 58.7934 11.26 59.0174 11.26H59.7494ZM63.0274 9.64C63.0274 8.952 63.1554 8.348 63.4114 7.828C63.6754 7.308 64.0314 6.908 64.4794 6.628C64.9274 6.348 65.4274 6.208 65.9794 6.208C66.4194 6.208 66.8194 6.3 67.1794 6.484C67.5474 6.668 67.8354 6.916 68.0434 7.228V4.12H70.0954V13H68.0434V12.04C67.8514 12.36 67.5754 12.616 67.2154 12.808C66.8634 13 66.4514 13.096 65.9794 13.096C65.4274 13.096 64.9274 12.956 64.4794 12.676C64.0314 12.388 63.6754 11.984 63.4114 11.464C63.1554 10.936 63.0274 10.328 63.0274 9.64ZM68.0434 9.652C68.0434 9.14 67.8994 8.736 67.6114 8.44C67.3314 8.144 66.9874 7.996 66.5794 7.996C66.1714 7.996 65.8234 8.144 65.5354 8.44C65.2554 8.728 65.1154 9.128 65.1154 9.64C65.1154 10.152 65.2554 10.56 65.5354 10.864C65.8234 11.16 66.1714 11.308 66.5794 11.308C66.9874 11.308 67.3314 11.16 67.6114 10.864C67.8994 10.568 68.0434 10.164 68.0434 9.652ZM71.1719 9.64C71.1719 8.952 71.2999 8.348 71.5559 7.828C71.8199 7.308 72.1759 6.908 72.6239 6.628C73.0719 6.348 73.5719 6.208 74.1239 6.208C74.5959 6.208 75.0079 6.304 75.3599 6.496C75.7199 6.688 75.9959 6.94 76.1879 7.252V6.304H78.2399V13H76.1879V12.052C75.9879 12.364 75.7079 12.616 75.3479 12.808C74.9959 13 74.5839 13.096 74.1119 13.096C73.5679 13.096 73.0719 12.956 72.6239 12.676C72.1759 12.388 71.8199 11.984 71.5559 11.464C71.2999 10.936 71.1719 10.328 71.1719 9.64ZM76.1879 9.652C76.1879 9.14 76.0439 8.736 75.7559 8.44C75.4759 8.144 75.1319 7.996 74.7239 7.996C74.3159 7.996 73.9679 8.144 73.6799 8.44C73.3999 8.728 73.2599 9.128 73.2599 9.64C73.2599 10.152 73.3999 10.56 73.6799 10.864C73.9679 11.16 74.3159 11.308 74.7239 11.308C75.1319 11.308 75.4759 11.16 75.7559 10.864C76.0439 10.568 76.1879 10.164 76.1879 9.652ZM83.4565 11.26V13H82.4125C81.6685 13 81.0885 12.82 80.6725 12.46C80.2565 12.092 80.0485 11.496 80.0485 10.672V8.008H79.2325V6.304H80.0485V4.672H82.1005V6.304H83.4445V8.008H82.1005V10.696C82.1005 10.896 82.1485 11.04 82.2445 11.128C82.3405 11.216 82.5005 11.26 82.7245 11.26H83.4565ZM84.1915 9.64C84.1915 8.952 84.3195 8.348 84.5755 7.828C84.8395 7.308 85.1955 6.908 85.6435 6.628C86.0915 6.348 86.5915 6.208 87.1435 6.208C87.6155 6.208 88.0275 6.304 88.3795 6.496C88.7395 6.688 89.0155 6.94 89.2075 7.252V6.304H91.2595V13H89.2075V12.052C89.0075 12.364 88.7275 12.616 88.3675 12.808C88.0155 13 87.6035 13.096 87.1315 13.096C86.5875 13.096 86.0915 12.956 85.6435 12.676C85.1955 12.388 84.8395 11.984 84.5755 11.464C84.3195 10.936 84.1915 10.328 84.1915 9.64ZM89.2075 9.652C89.2075 9.14 89.0635 8.736 88.7755 8.44C88.4955 8.144 88.1515 7.996 87.7435 7.996C87.3355 7.996 86.9875 8.144 86.6995 8.44C86.4195 8.728 86.2795 9.128 86.2795 9.64C86.2795 10.152 86.4195 10.56 86.6995 10.864C86.9875 11.16 87.3355 11.308 87.7435 11.308C88.1515 11.308 88.4955 11.16 88.7755 10.864C89.0635 10.568 89.2075 10.164 89.2075 9.652Z" fill="#4A47A3"/>
</svg>
