<svg width="119" height="66" viewBox="0 0 119 66" fill="none" xmlns="http://www.w3.org/2000/svg">
<path d="M99.728 25.928C99.728 27.464 99.428 28.736 98.828 29.744C98.252 30.752 97.508 31.556 96.596 32.156C95.684 32.78 94.652 33.212 93.5 33.452C92.372 33.692 91.256 33.812 90.152 33.812H88.028V30.284H90.116C90.788 30.284 91.448 30.224 92.096 30.104C92.768 29.984 93.368 29.768 93.896 29.456C94.4 29.12 94.808 28.676 95.12 28.124C95.456 27.548 95.624 26.816 95.624 25.928C95.624 25.136 95.444 24.476 95.084 23.948C94.724 23.42 94.268 22.988 93.716 22.652C93.14 22.316 92.504 22.076 91.808 21.932C91.112 21.788 90.416 21.716 89.72 21.716H86.732V44.144H82.844V18.26H89.756C90.956 18.26 92.144 18.38 93.32 18.62C94.52 18.86 95.588 19.268 96.524 19.844C97.484 20.444 98.252 21.236 98.828 22.22C99.428 23.204 99.728 24.44 99.728 25.928ZM118.505 21.752H111.269V44.216H107.309V21.752H100.145V18.332H118.505V21.752Z" fill="#FEFEFF"/>
<rect width="66" height="66" rx="7" fill="#FEFEFF"/>
<g clip-path="url(#clip0_1_24)">
<path d="M45.6667 23.4375C42.752 23.4375 40.3889 25.8162 40.3889 28.75C40.3889 30.9308 41.6958 32.7994 43.5628 33.6182V38.8444C43.5628 42.6462 40.2477 45.7507 36.1739 45.7507C32.2156 45.7507 28.9632 42.8221 28.7916 39.1612C33.5344 38.1664 37.2222 33.8832 37.2222 28.6902V18.4298C37.2222 17.6741 36.6846 17.01 35.9503 16.8692L31.7993 16.0317C30.9417 15.8574 30.1144 16.4146 29.9415 17.2781L29.7278 18.3235C29.5546 19.1868 30.1112 20.0229 30.9687 20.1975L32.9934 20.5999V28.6637C32.9934 32.1752 30.214 35.0805 26.7175 35.1137C23.1959 35.1469 20.3307 32.2875 20.3307 28.7434L20.3261 20.6066L22.3527 20.2007C23.2104 20.0347 23.7652 19.1947 23.5917 18.3314L23.3879 17.2863C23.2229 16.423 22.3884 15.8645 21.5307 16.0392L17.3831 16.8626C16.6488 17.012 16.1111 17.6661 16.1111 18.4298V28.7493C16.1111 33.8792 19.7468 38.179 24.5622 39.1618C24.7337 45.1723 29.8729 50 36.1667 50C42.566 50 47.7778 44.995 47.7778 38.8437V33.6176C49.6402 32.7968 50.9444 30.9308 50.9444 28.7533C50.9444 25.8148 48.5826 23.4375 45.6667 23.4375ZM45.6667 30.3437C44.7925 30.3437 44.0833 29.6299 44.0833 28.75C44.0833 27.8701 44.7892 27.1562 45.6667 27.1562C46.5441 27.1562 47.25 27.8668 47.25 28.75C47.25 29.6332 46.5441 30.3437 45.6667 30.3437Z" fill="#4A47A3"/>
</g>
<defs>
<clipPath id="clip0_1_24">
<rect width="38" height="34" fill="white" transform="translate(14 16)"/>
</clipPath>
</defs>
</svg>
