<svg width="17" height="17" viewBox="0 0 17 17" fill="none" xmlns="http://www.w3.org/2000/svg">
<path d="M5.3125 13.8125H3.1875C2.6008 13.8125 2.125 13.3367 2.125 12.75V4.25C2.125 3.6633 2.6008 3.1875 3.1875 3.1875H5.3125C5.8992 3.1875 6.375 2.7117 6.375 2.125C6.375 1.5383 5.9002 1.0625 5.3125 1.0625H3.1875C1.42707 1.0625 0 2.48957 0 4.25V12.75C0 14.5104 1.42707 15.9375 3.1875 15.9375H5.3125C5.8992 15.9375 6.375 15.4617 6.375 14.875C6.375 14.2883 5.9002 13.8125 5.3125 13.8125ZM16.6879 7.74961L12.4379 3.49961C12.0225 3.08424 11.3502 3.0849 10.9354 3.49961C10.5204 3.91465 10.5204 4.58701 10.9354 5.00205L13.3742 7.4375H6.375C5.7873 7.4375 5.3125 7.9123 5.3125 8.5C5.3125 9.0877 5.78764 9.5625 6.375 9.5625H13.3742L10.9378 11.9989C10.5227 12.414 10.5227 13.0863 10.9378 13.5014C11.3528 13.9164 12.0252 13.9164 12.4402 13.5014L16.6902 9.25139C17.1029 8.83535 17.1029 8.16465 16.6879 7.74961Z" fill="#EB5757"/>
</svg>
