<svg width="17" height="14" viewBox="0 0 17 14" fill="none" xmlns="http://www.w3.org/2000/svg">
<g clip-path="url(#clip0_1_194)">
<path d="M7.55546 10.0625C7.55546 7.72871 9.34872 5.7832 11.7287 5.34297L11.3415 3.34496C11.2595 2.92852 10.864 2.625 10.4065 2.625H9.93428V1.3125C9.93428 0.587891 9.29619 0 8.51377 0H4.72802C3.94591 0 3.31136 0.587891 3.31136 1.3125V2.625H2.81434C2.35688 2.625 1.96198 2.92906 1.88082 3.34633L0.014064 12.9713C-0.0842173 13.4887 0.339012 14 0.947589 14H9.7693C8.43202 13.1305 7.55546 11.6922 7.55546 10.0625ZM4.72212 1.3125H8.4999V2.625H4.72212V1.3125ZM12.7499 6.125C10.4035 6.125 8.4999 7.88867 8.4999 10.0625C8.4999 12.2363 10.4024 14 12.7499 14C15.0963 14 16.9999 12.2363 16.9999 10.0625C16.9999 7.88867 15.0963 6.125 12.7499 6.125ZM14.6388 10.5H13.2221V11.8125C13.2221 12.0541 13.0107 12.25 12.7765 12.25C12.5422 12.25 12.2777 12.0531 12.2777 11.8125V10.5H10.861C10.6002 10.5 10.4154 10.3041 10.4154 10.0625C10.4154 9.82089 10.6013 9.625 10.861 9.625H12.2777V8.3125C12.2777 8.07187 12.4902 7.875 12.7499 7.875C13.0096 7.875 13.2221 8.07187 13.2221 8.3125V9.625H14.6388C14.8996 9.625 15.111 9.82089 15.111 10.0625C15.111 10.3041 14.8985 10.5 14.6388 10.5Z" fill="#36325A"/>
</g>
<defs>
<clipPath id="clip0_1_194">
<rect width="17" height="14" fill="white"/>
</clipPath>
</defs>
</svg>
