<svg width="19" height="19" viewBox="0 0 19 19" fill="none" xmlns="http://www.w3.org/2000/svg">
<g clip-path="url(#clip0_1_31)">
<path d="M18.7678 17.6494L13.3648 12.2463C14.4114 10.9535 15.0415 9.31084 15.0415 7.5217C15.0415 3.37499 11.6674 0.000930786 7.52074 0.000930786C3.37403 0.000930786 0 3.37496 0 7.52167C0 11.6684 3.37406 15.0424 7.52077 15.0424C9.30991 15.0424 10.9526 14.4123 12.2454 13.3657L17.6485 18.7688C17.8028 18.9232 18.0055 19.0007 18.2082 19.0007C18.4109 19.0007 18.6135 18.9232 18.7679 18.7688C19.0774 18.4593 19.0774 17.9589 18.7678 17.6494ZM7.52077 13.4591C4.24646 13.4591 1.58333 10.796 1.58333 7.52167C1.58333 4.24735 4.24646 1.58422 7.52077 1.58422C10.7951 1.58422 13.4582 4.24735 13.4582 7.52167C13.4582 10.796 10.795 13.4591 7.52077 13.4591Z" fill="#BDBDBD"/>
</g>
<defs>
<clipPath id="clip0_1_31">
<rect width="19" height="19" fill="white"/>
</clipPath>
</defs>
</svg>
