<svg width="70" height="21" viewBox="0 0 70 21" fill="none" xmlns="http://www.w3.org/2000/svg">
<path d="M14.7846 5.172L12.2226 15H9.32458L7.75658 8.532L6.13258 15H3.23458L0.742578 5.172H3.30458L4.71858 12.326L6.46858 5.172H9.10058L10.7806 12.326L12.2086 5.172H14.7846ZM23.3492 10.968C23.3492 11.192 23.3352 11.4253 23.3072 11.668H17.8892C17.9265 12.1533 18.0805 12.5267 18.3512 12.788C18.6312 13.04 18.9719 13.166 19.3732 13.166C19.9705 13.166 20.3859 12.914 20.6192 12.41H23.1672C23.0365 12.9233 22.7985 13.3853 22.4532 13.796C22.1172 14.2067 21.6925 14.5287 21.1792 14.762C20.6659 14.9953 20.0919 15.112 19.4572 15.112C18.6919 15.112 18.0105 14.9487 17.4132 14.622C16.8159 14.2953 16.3492 13.8287 16.0132 13.222C15.6772 12.6153 15.5092 11.906 15.5092 11.094C15.5092 10.282 15.6725 9.57267 15.9992 8.966C16.3352 8.35933 16.8019 7.89267 17.3992 7.566C17.9965 7.23933 18.6825 7.076 19.4572 7.076C20.2132 7.076 20.8852 7.23467 21.4732 7.552C22.0612 7.86933 22.5185 8.322 22.8452 8.91C23.1812 9.498 23.3492 10.184 23.3492 10.968ZM20.8992 10.338C20.8992 9.92733 20.7592 9.60067 20.4792 9.358C20.1992 9.11533 19.8492 8.994 19.4292 8.994C19.0279 8.994 18.6872 9.11067 18.4072 9.344C18.1365 9.57733 17.9685 9.90867 17.9032 10.338H20.8992ZM31.9761 10.968C31.9761 11.192 31.9621 11.4253 31.9341 11.668H26.5161C26.5535 12.1533 26.7075 12.5267 26.9781 12.788C27.2581 13.04 27.5988 13.166 28.0001 13.166C28.5975 13.166 29.0128 12.914 29.2461 12.41H31.7941C31.6635 12.9233 31.4255 13.3853 31.0801 13.796C30.7441 14.2067 30.3195 14.5287 29.8061 14.762C29.2928 14.9953 28.7188 15.112 28.0841 15.112C27.3188 15.112 26.6375 14.9487 26.0401 14.622C25.4428 14.2953 24.9761 13.8287 24.6401 13.222C24.3041 12.6153 24.1361 11.906 24.1361 11.094C24.1361 10.282 24.2995 9.57267 24.6261 8.966C24.9621 8.35933 25.4288 7.89267 26.0261 7.566C26.6235 7.23933 27.3095 7.076 28.0841 7.076C28.8401 7.076 29.5121 7.23467 30.1001 7.552C30.6881 7.86933 31.1455 8.322 31.4721 8.91C31.8081 9.498 31.9761 10.184 31.9761 10.968ZM29.5261 10.338C29.5261 9.92733 29.3861 9.60067 29.1061 9.358C28.8261 9.11533 28.4761 8.994 28.0561 8.994C27.6548 8.994 27.3141 9.11067 27.0341 9.344C26.7635 9.57733 26.5955 9.90867 26.5301 10.338H29.5261ZM38.0131 15L35.6331 11.724V15H33.2391V4.64H35.6331V10.366L37.9991 7.188H40.9531L37.7051 11.108L40.9811 15H38.0131ZM44.2874 4.64V15H41.8934V4.64H44.2874ZM54.0023 7.188L49.1023 18.71H46.5263L48.3183 14.734L45.1403 7.188H47.8143L49.6203 12.074L51.4123 7.188H54.0023Z" fill="#4A47A3"/>
<g clip-path="url(#clip0_438_336)">
<path d="M66.9999 12.8678C66.872 12.8678 66.744 12.8161 66.6465 12.7128L64.1465 10.0682C63.9512 9.86156 63.9512 9.52685 64.1465 9.32024C64.3418 9.11363 64.6582 9.11363 64.8535 9.32024L66.9999 11.5917L69.1468 9.32066C69.3421 9.11404 69.6585 9.11404 69.8538 9.32066C70.0491 9.52727 70.0491 9.86198 69.8538 10.0686L67.3538 12.7132C67.2562 12.8165 67.128 12.8678 66.9999 12.8678Z" fill="#4A47A3"/>
</g>
<defs>
<clipPath id="clip0_438_336">
<rect width="6" height="4" fill="white" transform="translate(64 9)"/>
</clipPath>
</defs>
</svg>
