<svg width="40" height="40" viewBox="0 0 40 40" fill="none" xmlns="http://www.w3.org/2000/svg">
<circle opacity="0.1" cx="20" cy="20" r="20" fill="#4A47A3"/>
<path d="M20.2083 10.1521C14.7782 10.1521 10.3604 14.5699 10.3604 20C10.3604 25.4301 14.7782 29.8479 20.2083 29.8479C25.6384 29.8479 30.0562 25.4301 30.0562 20C30.0562 14.5699 25.6384 10.1521 20.2083 10.1521ZM15.754 26.393C16.4929 24.6166 18.2396 23.4245 20.2083 23.4245C22.177 23.4245 23.9241 24.6166 24.663 26.393C23.3992 27.2762 21.8636 27.7963 20.2083 27.7963C18.5529 27.7963 17.0174 27.2762 15.754 26.393ZM18.3418 19.5063V19.1208C18.3418 18.0914 19.1793 17.2543 20.2083 17.2543C21.2373 17.2543 22.0748 18.0914 22.0748 19.1208V19.5063C22.0748 20.5354 21.2373 21.3728 20.2083 21.3728C19.1793 21.3728 18.3418 20.5354 18.3418 19.5063ZM26.2366 24.9376C25.5418 23.6729 24.4679 22.6672 23.1844 22.0505C23.771 21.3652 24.1265 20.4769 24.1265 19.5063V19.1208C24.1265 16.9602 22.3685 15.2027 20.2083 15.2027C18.0481 15.2027 16.2901 16.9602 16.2901 19.1208V19.5063C16.2901 20.4769 16.6456 21.3652 17.2322 22.0505C15.9487 22.6668 14.8748 23.6729 14.18 24.9376C13.076 23.592 12.412 21.8721 12.412 20C12.412 15.7011 15.9094 12.2037 20.2083 12.2037C24.5072 12.2037 28.0046 15.7011 28.0046 20C28.0046 21.8721 27.3406 23.592 26.2366 24.9376Z" fill="#4A47A3"/>
</svg>
