<svg width="17" height="18" viewBox="0 0 17 18" fill="none" xmlns="http://www.w3.org/2000/svg">
<path d="M6.55208 0H1.23958C0.556042 0 0 0.58875 0 1.3125V4.6875C0 5.41125 0.556042 6 1.23958 6H6.55208C7.23563 6 7.79167 5.41125 7.79167 4.6875V1.3125C7.79167 0.58875 7.23563 0 6.55208 0Z" fill="#FEFEFF"/>
<path d="M6.55208 7.5H1.23958C0.556034 7.5 -7.62939e-06 8.08875 -7.62939e-06 8.8125V16.6875C-7.62939e-06 17.4113 0.556034 18 1.23958 18H6.55208C7.23562 18 7.79166 17.4113 7.79166 16.6875V8.8125C7.79166 8.08875 7.23562 7.5 6.55208 7.5Z" fill="#FEFEFF"/>
<path d="M15.7604 12H10.4479C9.76432 12 9.20828 12.5888 9.20828 13.3125V16.6875C9.20828 17.4113 9.76432 18 10.4479 18H15.7604C16.4439 18 16.9999 17.4113 16.9999 16.6875V13.3125C16.9999 12.5888 16.4439 12 15.7604 12Z" fill="#FEFEFF"/>
<path d="M15.7604 0H10.4479C9.76432 0 9.20828 0.58875 9.20828 1.3125V9.1875C9.20828 9.91125 9.76432 10.5 10.4479 10.5H15.7604C16.4439 10.5 16.9999 9.91125 16.9999 9.1875V1.3125C16.9999 0.58875 16.4439 0 15.7604 0Z" fill="#FEFEFF"/>
</svg>
