<svg width="17" height="18" viewBox="0 0 17 18" fill="none" xmlns="http://www.w3.org/2000/svg">
<path d="M6.55208 0H1.23958C0.556042 0 0 0.58875 0 1.3125V4.6875C0 5.41125 0.556042 6 1.23958 6H6.55208C7.23563 6 7.79167 5.41125 7.79167 4.6875V1.3125C7.79167 0.58875 7.23563 0 6.55208 0Z" fill="#4A47A3"/>
<path d="M6.55208 7.5H1.23958C0.556042 7.5 0 8.08875 0 8.8125V16.6875C0 17.4113 0.556042 18 1.23958 18H6.55208C7.23563 18 7.79167 17.4113 7.79167 16.6875V8.8125C7.79167 8.08875 7.23563 7.5 6.55208 7.5Z" fill="#4A47A3"/>
<path d="M15.7604 12H10.4479C9.76435 12 9.20831 12.5888 9.20831 13.3125V16.6875C9.20831 17.4113 9.76435 18 10.4479 18H15.7604C16.4439 18 17 17.4113 17 16.6875V13.3125C17 12.5888 16.4439 12 15.7604 12Z" fill="#4A47A3"/>
<path d="M15.7604 0H10.4479C9.76435 0 9.20831 0.58875 9.20831 1.3125V9.1875C9.20831 9.91125 9.76435 10.5 10.4479 10.5H15.7604C16.4439 10.5 17 9.91125 17 9.1875V1.3125C17 0.58875 16.4439 0 15.7604 0Z" fill="#4A47A3"/>
</svg>
