<svg width="75" height="18" viewBox="0 0 75 18" fill="none" xmlns="http://www.w3.org/2000/svg">
<path d="M3.792 13.084C3.176 13.084 2.624 12.984 2.136 12.784C1.648 12.584 1.256 12.288 0.96 11.896C0.672 11.504 0.52 11.032 0.504 10.48H2.688C2.72 10.792 2.828 11.032 3.012 11.2C3.196 11.36 3.436 11.44 3.732 11.44C4.036 11.44 4.276 11.372 4.452 11.236C4.628 11.092 4.716 10.896 4.716 10.648C4.716 10.44 4.644 10.268 4.5 10.132C4.364 9.996 4.192 9.884 3.984 9.796C3.784 9.708 3.496 9.608 3.12 9.496C2.576 9.328 2.132 9.16 1.788 8.992C1.444 8.824 1.148 8.576 0.9 8.248C0.652 7.92 0.528 7.492 0.528 6.964C0.528 6.18 0.812 5.568 1.38 5.128C1.948 4.68 2.688 4.456 3.6 4.456C4.528 4.456 5.276 4.68 5.844 5.128C6.412 5.568 6.716 6.184 6.756 6.976H4.536C4.52 6.704 4.42 6.492 4.236 6.34C4.052 6.18 3.816 6.1 3.528 6.1C3.28 6.1 3.08 6.168 2.928 6.304C2.776 6.432 2.7 6.62 2.7 6.868C2.7 7.14 2.828 7.352 3.084 7.504C3.34 7.656 3.74 7.82 4.284 7.996C4.828 8.18 5.268 8.356 5.604 8.524C5.948 8.692 6.244 8.936 6.492 9.256C6.74 9.576 6.864 9.988 6.864 10.492C6.864 10.972 6.74 11.408 6.492 11.8C6.252 12.192 5.9 12.504 5.436 12.736C4.972 12.968 4.424 13.084 3.792 13.084ZM14.4388 9.544C14.4388 9.736 14.4268 9.936 14.4028 10.144H9.75881C9.79081 10.56 9.92281 10.88 10.1548 11.104C10.3948 11.32 10.6868 11.428 11.0308 11.428C11.5428 11.428 11.8988 11.212 12.0988 10.78H14.2828C14.1708 11.22 13.9668 11.616 13.6708 11.968C13.3828 12.32 13.0188 12.596 12.5788 12.796C12.1388 12.996 11.6468 13.096 11.1028 13.096C10.4468 13.096 9.86281 12.956 9.35081 12.676C8.83881 12.396 8.43881 11.996 8.15081 11.476C7.86281 10.956 7.71881 10.348 7.71881 9.652C7.71881 8.956 7.85881 8.348 8.13881 7.828C8.42681 7.308 8.82681 6.908 9.33881 6.628C9.85081 6.348 10.4388 6.208 11.1028 6.208C11.7508 6.208 12.3268 6.344 12.8308 6.616C13.3348 6.888 13.7268 7.276 14.0068 7.78C14.2948 8.284 14.4388 8.872 14.4388 9.544ZM12.3388 9.004C12.3388 8.652 12.2188 8.372 11.9788 8.164C11.7388 7.956 11.4388 7.852 11.0788 7.852C10.7348 7.852 10.4428 7.952 10.2028 8.152C9.97081 8.352 9.82681 8.636 9.77081 9.004H12.3388ZM21.8333 9.544C21.8333 9.736 21.8213 9.936 21.7973 10.144H17.1533C17.1853 10.56 17.3173 10.88 17.5493 11.104C17.7893 11.32 18.0813 11.428 18.4253 11.428C18.9373 11.428 19.2933 11.212 19.4933 10.78H21.6773C21.5653 11.22 21.3613 11.616 21.0653 11.968C20.7773 12.32 20.4133 12.596 19.9733 12.796C19.5333 12.996 19.0413 13.096 18.4973 13.096C17.8413 13.096 17.2573 12.956 16.7453 12.676C16.2333 12.396 15.8333 11.996 15.5453 11.476C15.2573 10.956 15.1133 10.348 15.1133 9.652C15.1133 8.956 15.2533 8.348 15.5333 7.828C15.8213 7.308 16.2213 6.908 16.7333 6.628C17.2453 6.348 17.8333 6.208 18.4973 6.208C19.1453 6.208 19.7213 6.344 20.2253 6.616C20.7293 6.888 21.1213 7.276 21.4013 7.78C21.6893 8.284 21.8333 8.872 21.8333 9.544ZM19.7333 9.004C19.7333 8.652 19.6133 8.372 19.3733 8.164C19.1333 7.956 18.8333 7.852 18.4733 7.852C18.1293 7.852 17.8373 7.952 17.5973 8.152C17.3653 8.352 17.2213 8.636 17.1653 9.004H19.7333ZM34.0028 6.232C34.8348 6.232 35.4948 6.484 35.9828 6.988C36.4788 7.492 36.7268 8.192 36.7268 9.088V13H34.6868V9.364C34.6868 8.932 34.5708 8.6 34.3388 8.368C34.1148 8.128 33.8028 8.008 33.4028 8.008C33.0028 8.008 32.6868 8.128 32.4548 8.368C32.2308 8.6 32.1188 8.932 32.1188 9.364V13H30.0788V9.364C30.0788 8.932 29.9628 8.6 29.7308 8.368C29.5068 8.128 29.1948 8.008 28.7948 8.008C28.3948 8.008 28.0788 8.128 27.8468 8.368C27.6228 8.6 27.5108 8.932 27.5108 9.364V13H25.4588V6.304H27.5108V7.144C27.7188 6.864 27.9908 6.644 28.3268 6.484C28.6628 6.316 29.0428 6.232 29.4668 6.232C29.9708 6.232 30.4188 6.34 30.8108 6.556C31.2108 6.772 31.5228 7.08 31.7468 7.48C31.9788 7.112 32.2948 6.812 32.6948 6.58C33.0948 6.348 33.5308 6.232 34.0028 6.232ZM41.21 13.096C40.554 13.096 39.962 12.956 39.434 12.676C38.914 12.396 38.502 11.996 38.198 11.476C37.902 10.956 37.754 10.348 37.754 9.652C37.754 8.964 37.906 8.36 38.21 7.84C38.514 7.312 38.93 6.908 39.458 6.628C39.986 6.348 40.578 6.208 41.234 6.208C41.89 6.208 42.482 6.348 43.01 6.628C43.538 6.908 43.954 7.312 44.258 7.84C44.562 8.36 44.714 8.964 44.714 9.652C44.714 10.34 44.558 10.948 44.246 11.476C43.942 11.996 43.522 12.396 42.986 12.676C42.458 12.956 41.866 13.096 41.21 13.096ZM41.21 11.32C41.602 11.32 41.934 11.176 42.206 10.888C42.486 10.6 42.626 10.188 42.626 9.652C42.626 9.116 42.49 8.704 42.218 8.416C41.954 8.128 41.626 7.984 41.234 7.984C40.834 7.984 40.502 8.128 40.238 8.416C39.974 8.696 39.842 9.108 39.842 9.652C39.842 10.188 39.97 10.6 40.226 10.888C40.49 11.176 40.818 11.32 41.21 11.32ZM47.8546 7.42C48.0946 7.052 48.3946 6.764 48.7546 6.556C49.1146 6.34 49.5146 6.232 49.9546 6.232V8.404H49.3906C48.8786 8.404 48.4946 8.516 48.2386 8.74C47.9826 8.956 47.8546 9.34 47.8546 9.892V13H45.8026V6.304H47.8546V7.42ZM57.2474 9.544C57.2474 9.736 57.2354 9.936 57.2114 10.144H52.5674C52.5994 10.56 52.7314 10.88 52.9634 11.104C53.2034 11.32 53.4954 11.428 53.8394 11.428C54.3514 11.428 54.7074 11.212 54.9074 10.78H57.0914C56.9794 11.22 56.7754 11.616 56.4794 11.968C56.1914 12.32 55.8274 12.596 55.3874 12.796C54.9474 12.996 54.4554 13.096 53.9114 13.096C53.2554 13.096 52.6714 12.956 52.1594 12.676C51.6474 12.396 51.2474 11.996 50.9594 11.476C50.6714 10.956 50.5274 10.348 50.5274 9.652C50.5274 8.956 50.6674 8.348 50.9474 7.828C51.2354 7.308 51.6354 6.908 52.1474 6.628C52.6594 6.348 53.2474 6.208 53.9114 6.208C54.5594 6.208 55.1354 6.344 55.6394 6.616C56.1434 6.888 56.5354 7.276 56.8154 7.78C57.1034 8.284 57.2474 8.872 57.2474 9.544ZM55.1474 9.004C55.1474 8.652 55.0274 8.372 54.7874 8.164C54.5474 7.956 54.2474 7.852 53.8874 7.852C53.5434 7.852 53.2514 7.952 53.0114 8.152C52.7794 8.352 52.6354 8.636 52.5794 9.004H55.1474Z" fill="#4A47A3"/>
<g opacity="0.3" clip-path="url(#clip0_1_178)">
<path d="M72.75 8.99999C72.75 9.18276 72.6768 9.36561 72.5303 9.5049L68.0303 13.7906C67.7373 14.0696 67.2627 14.0696 66.9697 13.7906C66.6768 13.5116 66.6768 13.0596 66.9697 12.7806L70.9406 8.99999L66.9703 5.21874C66.6773 4.93972 66.6773 4.48771 66.9703 4.2087C67.2633 3.92968 67.7379 3.92968 68.0309 4.2087L72.5309 8.49441C72.6773 8.63392 72.75 8.81695 72.75 8.99999Z" fill="#36325A"/>
</g>
<defs>
<clipPath id="clip0_1_178">
<rect width="10" height="12" fill="white" transform="translate(63 14) rotate(-90)"/>
</clipPath>
</defs>
</svg>
