<svg width="19" height="21" viewBox="0 0 19 21" fill="none" xmlns="http://www.w3.org/2000/svg">
<path d="M17.9821 3.28125H14.8276L13.3857 0.953613C13.0158 0.364014 12.3542 0 11.6375 0H7.3625C6.64661 0 5.98415 0.364014 5.61306 0.953613L4.17237 3.28125H0.979687C0.455915 3.28125 0 3.72217 0 4.22871C0 4.73525 0.455915 5.25 0.979687 5.25H1.35714L2.25667 19.1543C2.32029 20.1899 3.21176 21 4.28815 21H14.7127C15.7891 21 16.6806 20.1899 16.7442 19.1543L17.6429 5.25H17.9821C18.5462 5.25 19 4.81113 19 4.26562C19 3.72012 18.5462 3.28125 17.9821 3.28125ZM7.3625 1.96875H11.6375L12.4539 3.28125H6.54821L7.3625 1.96875ZM14.7123 19.0312H4.28772L3.39837 5.25H15.6042L14.7123 19.0312Z" fill="#EB5757"/>
</svg>
