<svg width="32" height="28" viewBox="0 0 32 28" fill="none" xmlns="http://www.w3.org/2000/svg">
<path d="M0 3.5C0 1.5668 1.59167 0 3.55556 0H14.2222C16.1833 0 17.7778 1.5668 17.7778 3.5V18.375C17.7778 18.8563 17.3778 19.25 16.8889 19.25C16.4 19.25 16 18.8563 16 18.375V3.5C16 2.53367 15.2056 1.75 14.2222 1.75H3.55556C2.57389 1.75 1.77778 2.53367 1.77778 3.5V14H8C8.48889 14 8.88889 14.3937 8.88889 14.875C8.88889 15.3563 8.48889 15.75 8 15.75H1.77778V19.25H8C8.48889 19.25 8.88889 19.6437 8.88889 20.125C8.88889 20.6063 8.48889 21 8 21H1.77778V24.5C1.77778 25.468 2.57389 26.25 3.55556 26.25H13.3333C13.8222 26.25 14.2222 26.6437 14.2222 27.125C14.2222 27.6063 13.8222 28 13.3333 28H3.55556C1.59167 28 0 26.4305 0 24.5V3.5ZM8 4.375C8 3.89156 8.4 3.5 8.88889 3.5C9.37778 3.5 9.77778 3.89156 9.77778 4.375V6.125H11.5556C12.0444 6.125 12.4444 6.51875 12.4444 7C12.4444 7.48125 12.0444 7.875 11.5556 7.875H9.77778V9.625C9.77778 10.1063 9.37778 10.5 8.88889 10.5C8.4 10.5 8 10.1063 8 9.625V7.875H6.22222C5.73333 7.875 5.33333 7.48125 5.33333 7C5.33333 6.51875 5.73333 6.125 6.22222 6.125H8V4.375ZM28.4444 14.875C28.4444 17.2922 26.4556 19.25 24 19.25C21.5444 19.25 19.5556 17.2922 19.5556 14.875C19.5556 12.4578 21.5444 10.5 24 10.5C26.4556 10.5 28.4444 12.4578 28.4444 14.875ZM24 12.25C22.5278 12.25 21.3333 13.4258 21.3333 14.875C21.3333 16.3242 22.5278 17.5 24 17.5C25.4722 17.5 26.6667 16.3242 26.6667 14.875C26.6667 13.4258 25.4722 12.25 24 12.25ZM26.8278 21C29.6833 21 32 23.2805 32 26.0914C32 27.1469 31.1333 28 30.0611 28H17.9389C16.8667 28 16 27.1469 16 26.0914C16 23.2805 18.3167 21 21.1722 21H26.8278ZM17.9389 26.25H30.0611C30.15 26.25 30.2222 26.1789 30.2222 26.0914C30.2222 24.2484 28.7 22.75 26.8278 22.75H21.1722C19.3 22.75 17.7778 24.2484 17.7778 26.0914C17.7778 26.1789 17.85 26.25 17.9389 26.25Z" fill="#36325A"/>
</svg>
