<svg width="67" height="73" viewBox="0 0 67 73" fill="none" xmlns="http://www.w3.org/2000/svg">
<path d="M21.7628 39.9889C21.169 40.582 21.169 41.5463 21.7628 42.1394C22.0613 42.4344 22.4511 42.5835 22.8409 42.5835C23.2308 42.5835 23.6205 42.4345 23.916 42.1394L33.0524 33.0144C33.1924 32.8745 33.3052 32.7041 33.3813 32.5186C33.424 32.4121 33.43 32.3026 33.4483 32.1901C33.4635 32.105 33.5001 32.0259 33.5001 31.9376C33.5001 31.822 33.4574 31.7186 33.4331 31.6121C33.4148 31.53 33.4148 31.4417 33.3813 31.3627C33.3021 31.1711 33.1864 31.0007 33.0433 30.8547L23.916 21.7388C23.3222 21.1457 22.3567 21.1457 21.7628 21.7388C21.169 22.3319 21.169 23.2962 21.7628 23.8893L28.2953 30.4167H1.52278C0.68223 30.4167 0 31.0981 0 31.9376C0 32.7771 0.68223 33.4585 1.52278 33.4585H28.3015L21.7628 39.9889Z" fill="#36325A"/>
<path d="M60.425 0C60.1904 0 59.962 0.0456252 59.7336 0.0700061C59.618 0.042631 59.5084 0 59.3864 0H22.841C18.6444 0 15.2274 3.41276 15.2274 7.60415V22.8126C15.2274 23.6521 15.9096 24.3335 16.7501 24.3335C17.5907 24.3335 18.2729 23.6521 18.2729 22.8126V7.60415C18.2729 5.08863 20.3225 3.04163 22.8411 3.04163H51.9678L40.5321 7.93564C38.111 8.9729 36.5457 11.3423 36.5457 13.9734V60.8335H22.8411C20.6514 60.8335 18.7907 59.3126 18.3369 58.683L18.2729 41.0564C18.2699 40.2199 17.5877 39.5416 16.7501 39.5416C16.7501 39.5416 16.7471 39.5416 16.744 39.5416C15.9035 39.5446 15.2244 40.229 15.2274 41.0685L15.2975 58.7923C15.2365 59.4585 15.5503 60.1549 16.2506 60.9214C17.4962 62.2841 19.9691 63.875 22.841 63.875H36.5455V66.433C36.5455 70.0526 39.4966 73 43.1207 73C44.0191 73 44.8932 72.8205 45.7093 72.4708L63.0136 65.0642C65.4347 64.027 67 61.6576 67 59.0264V6.56703C67.0002 2.94739 64.0491 0 60.425 0ZM63.9546 59.0269C63.9546 60.4383 63.1141 61.7126 61.8137 62.2663L44.5094 69.6726C44.0709 69.8643 43.6019 69.9585 43.1207 69.9585C41.1747 69.9585 39.5911 68.3769 39.5911 66.4333V13.9734C39.5911 12.562 40.4316 11.2877 41.732 10.734L59.0363 3.32764C59.4748 3.13602 59.9438 3.04177 60.425 3.04177C62.371 3.04177 63.9546 4.6234 63.9546 6.56703V59.0269Z" fill="#36325A"/>
<path d="M44.1592 33.4585C43.3187 33.4585 42.6365 34.1399 42.6365 34.9794V41.0627C42.6365 41.9022 43.3187 42.5836 44.1592 42.5836C44.9998 42.5836 45.682 41.9022 45.682 41.0627V34.9793C45.6819 34.1398 44.9998 33.4585 44.1592 33.4585Z" fill="#36325A"/>
</svg>
