<svg width="24" height="22" viewBox="0 0 24 22" fill="none" xmlns="http://www.w3.org/2000/svg">
<path d="M4.66667 0C5.03333 0 5.33333 0.307828 5.33333 0.6875V2.75H13.3333V0.6875C13.3333 0.307828 13.6333 0 14 0C14.3667 0 14.6667 0.307828 14.6667 0.6875V2.75H16C17.4708 2.75 18.6667 3.98105 18.6667 5.5V8.25H1.33333V19.25C1.33333 20.0105 1.93042 20.625 2.66667 20.625H12.3417C12.7625 21.1449 13.2458 21.609 13.7833 22H2.66667C1.19375 22 0 20.7668 0 19.25V5.5C0 3.98105 1.19375 2.75 2.66667 2.75H4V0.6875C4 0.307828 4.3 0 4.66667 0ZM16 4.125H2.66667C1.93042 4.125 1.33333 4.73945 1.33333 5.5V6.875H17.3333V5.5C17.3333 4.73945 16.7375 4.125 16 4.125ZM18.6667 18.5625C18.6667 18.9406 18.3667 19.25 18 19.25C17.6333 19.25 17.3333 18.9406 17.3333 18.5625C17.3333 18.1844 17.6333 17.875 18 17.875C18.3667 17.875 18.6667 18.1844 18.6667 18.5625ZM18.6292 16.5C18.6292 16.8781 18.3667 17.1875 17.9625 17.1875C17.6333 17.1875 17.2958 16.8781 17.2958 16.5V13.0625C17.2958 12.6844 17.6333 12.375 17.9625 12.375C18.3667 12.375 18.6292 12.6844 18.6292 13.0625V16.5ZM12 15.8125C12 12.3965 14.6875 9.625 18 9.625C21.3125 9.625 24 12.3965 24 15.8125C24 19.2285 21.3125 22 18 22C14.6875 22 12 19.2285 12 15.8125ZM18 20.625C20.5792 20.625 22.6667 18.4723 22.6667 15.8125C22.6667 13.1527 20.5792 11 18 11C15.4208 11 13.3333 13.1527 13.3333 15.8125C13.3333 18.4723 15.4208 20.625 18 20.625Z" fill="#333333"/>
</svg>
