<svg width="25" height="28" viewBox="0 0 25 28" fill="none" xmlns="http://www.w3.org/2000/svg">
<g opacity="0.2">
<path d="M23.1655 19.7318C21.3655 18.2408 20.3333 16.0615 20.3333 13.7527V10.5C20.3333 6.3945 17.2214 2.996 13.1905 2.42667V1.16667C13.1905 0.5215 12.6571 0 12 0C11.3428 0 10.8095 0.5215 10.8095 1.16667V2.42667C6.77736 2.996 3.66664 6.3945 3.66664 10.5V13.7527C3.66664 16.0615 2.6345 18.2408 0.823786 19.7412C0.360691 20.1297 0.0952148 20.6943 0.0952148 21.2917C0.0952148 22.4175 1.02974 23.3333 2.17855 23.3333H21.8214C22.9702 23.3333 23.9047 22.4175 23.9047 21.2917C23.9047 20.6943 23.6393 20.1297 23.1655 19.7318Z" fill="#4A47A3"/>
<path d="M12 28C14.1559 28 15.9595 26.4938 16.3738 24.5H7.62616C8.04045 26.4938 9.84402 28 12 28Z" fill="#4A47A3"/>
</g>
<circle cx="18.5" cy="6.5" r="5.5" fill="#36325A" stroke="#FEFEFF" stroke-width="2"/>
</svg>
