<svg width="22" height="22" viewBox="0 0 22 22" fill="none" xmlns="http://www.w3.org/2000/svg">
<path d="M15.5848 0.830157C16.659 -0.243976 18.4035 -0.243976 19.4777 0.830157L21.1707 2.52441C22.2449 3.5982 22.2449 5.34102 21.1707 6.41523L19.091 8.49492L13.5051 2.90984L15.5848 0.830157ZM18.1199 9.46602L8.0996 19.482C7.65273 19.9289 7.09843 20.2598 6.49257 20.4359L1.32214 21.957C0.960342 22.0645 0.568897 21.9656 0.302061 21.6605C0.0352161 21.4328 -0.0645488 21.0418 0.0419278 20.6766L1.56276 15.5074C1.74151 14.9016 2.06937 14.3473 2.51667 13.9004L12.534 3.8818L18.1199 9.46602Z" fill="#709FB0"/>
</svg>
