<svg width="14" height="14" viewBox="0 0 14 14" fill="none" xmlns="http://www.w3.org/2000/svg">
<path d="M12.25 5.25H1.75C0.783398 5.25 0 6.03477 0 7V9.625C0 10.1082 0.391836 10.5 0.875 10.5H1.75V13.125C1.75 13.6082 2.14184 14 2.625 14H11.375C11.8582 14 12.25 13.6082 12.25 13.125V10.5H13.125C13.6082 10.5 14 10.1082 14 9.625V7C14 6.03477 13.2152 5.25 12.25 5.25ZM10.5 12.25H3.5V9.625H10.5V12.25ZM11.8125 8.09375C11.4502 8.09375 11.1562 7.7998 11.1562 7.4375C11.1562 7.07465 11.4502 6.78125 11.8125 6.78125C12.1748 6.78125 12.4688 7.07465 12.4688 7.4375C12.4688 7.80117 12.1762 8.09375 11.8125 8.09375ZM3.5 1.75H9.77539L10.5 2.47488V4.375H12.25V2.1123C12.25 1.88032 12.1577 1.65785 11.9937 1.49379L10.7563 0.256484C10.593 0.0922852 10.3687 0 10.1391 0H2.625C2.14211 0 1.75 0.391836 1.75 0.875V4.375H3.5V1.75Z" fill="#36325A"/>
</svg>
