<svg width="79" height="18" viewBox="0 0 79 18" fill="none" xmlns="http://www.w3.org/2000/svg">
<path d="M33.328 13L31.336 9.58H30.016V13H28.924V4.636H31.624C32.256 4.636 32.788 4.744 33.22 4.96C33.66 5.176 33.988 5.468 34.204 5.836C34.42 6.204 34.528 6.624 34.528 7.096C34.528 7.672 34.36 8.18 34.024 8.62C33.696 9.06 33.2 9.352 32.536 9.496L34.636 13H33.328ZM30.016 8.704H31.624C32.216 8.704 32.66 8.56 32.956 8.272C33.252 7.976 33.4 7.584 33.4 7.096C33.4 6.6 33.252 6.216 32.956 5.944C32.668 5.672 32.224 5.536 31.624 5.536H30.016V8.704ZM42.2248 9.46C42.2248 9.668 42.2128 9.888 42.1888 10.12H36.9328C36.9728 10.768 37.1928 11.276 37.5928 11.644C38.0008 12.004 38.4928 12.184 39.0688 12.184C39.5408 12.184 39.9328 12.076 40.2448 11.86C40.5648 11.636 40.7888 11.34 40.9168 10.972H42.0928C41.9168 11.604 41.5648 12.12 41.0368 12.52C40.5088 12.912 39.8528 13.108 39.0688 13.108C38.4448 13.108 37.8848 12.968 37.3888 12.688C36.9008 12.408 36.5168 12.012 36.2368 11.5C35.9568 10.98 35.8168 10.38 35.8168 9.7C35.8168 9.02 35.9528 8.424 36.2248 7.912C36.4968 7.4 36.8768 7.008 37.3648 6.736C37.8608 6.456 38.4288 6.316 39.0688 6.316C39.6928 6.316 40.2448 6.452 40.7248 6.724C41.2048 6.996 41.5728 7.372 41.8288 7.852C42.0928 8.324 42.2248 8.86 42.2248 9.46ZM41.0968 9.232C41.0968 8.816 41.0048 8.46 40.8208 8.164C40.6368 7.86 40.3848 7.632 40.0648 7.48C39.7528 7.32 39.4048 7.24 39.0208 7.24C38.4688 7.24 37.9968 7.416 37.6048 7.768C37.2208 8.12 37.0008 8.608 36.9448 9.232H41.0968ZM45.9942 13.108C45.4902 13.108 45.0382 13.024 44.6382 12.856C44.2382 12.68 43.9222 12.44 43.6902 12.136C43.4582 11.824 43.3302 11.468 43.3062 11.068H44.4342C44.4662 11.396 44.6182 11.664 44.8902 11.872C45.1702 12.08 45.5342 12.184 45.9822 12.184C46.3982 12.184 46.7262 12.092 46.9662 11.908C47.2062 11.724 47.3262 11.492 47.3262 11.212C47.3262 10.924 47.1982 10.712 46.9422 10.576C46.6862 10.432 46.2902 10.292 45.7542 10.156C45.2662 10.028 44.8662 9.9 44.5542 9.772C44.2502 9.636 43.9862 9.44 43.7622 9.184C43.5462 8.92 43.4382 8.576 43.4382 8.152C43.4382 7.816 43.5382 7.508 43.7382 7.228C43.9382 6.948 44.2222 6.728 44.5902 6.568C44.9582 6.4 45.3782 6.316 45.8502 6.316C46.5782 6.316 47.1662 6.5 47.6142 6.868C48.0622 7.236 48.3022 7.74 48.3342 8.38H47.2422C47.2182 8.036 47.0782 7.76 46.8222 7.552C46.5742 7.344 46.2382 7.24 45.8142 7.24C45.4222 7.24 45.1102 7.324 44.8782 7.492C44.6462 7.66 44.5302 7.88 44.5302 8.152C44.5302 8.368 44.5982 8.548 44.7342 8.692C44.8782 8.828 45.0542 8.94 45.2622 9.028C45.4782 9.108 45.7742 9.2 46.1502 9.304C46.6222 9.432 47.0062 9.56 47.3022 9.688C47.5982 9.808 47.8502 9.992 48.0582 10.24C48.2742 10.488 48.3862 10.812 48.3942 11.212C48.3942 11.572 48.2942 11.896 48.0942 12.184C47.8942 12.472 47.6102 12.7 47.2422 12.868C46.8822 13.028 46.4662 13.108 45.9942 13.108ZM55.9357 9.46C55.9357 9.668 55.9237 9.888 55.8997 10.12H50.6437C50.6837 10.768 50.9037 11.276 51.3037 11.644C51.7117 12.004 52.2037 12.184 52.7797 12.184C53.2517 12.184 53.6437 12.076 53.9557 11.86C54.2757 11.636 54.4997 11.34 54.6277 10.972H55.8037C55.6277 11.604 55.2757 12.12 54.7477 12.52C54.2197 12.912 53.5637 13.108 52.7797 13.108C52.1557 13.108 51.5957 12.968 51.0997 12.688C50.6117 12.408 50.2277 12.012 49.9477 11.5C49.6677 10.98 49.5277 10.38 49.5277 9.7C49.5277 9.02 49.6637 8.424 49.9357 7.912C50.2077 7.4 50.5877 7.008 51.0757 6.736C51.5717 6.456 52.1397 6.316 52.7797 6.316C53.4037 6.316 53.9557 6.452 54.4357 6.724C54.9157 6.996 55.2837 7.372 55.5397 7.852C55.8037 8.324 55.9357 8.86 55.9357 9.46ZM54.8077 9.232C54.8077 8.816 54.7157 8.46 54.5317 8.164C54.3477 7.86 54.0957 7.632 53.7757 7.48C53.4637 7.32 53.1157 7.24 52.7317 7.24C52.1797 7.24 51.7077 7.416 51.3157 7.768C50.9317 8.12 50.7117 8.608 50.6557 9.232H54.8077ZM58.7091 7.324V11.2C58.7091 11.52 58.7771 11.748 58.9131 11.884C59.0491 12.012 59.2851 12.076 59.6211 12.076H60.4251V13H59.4411C58.8331 13 58.3771 12.86 58.0731 12.58C57.7691 12.3 57.6171 11.84 57.6171 11.2V7.324H56.7651V6.424H57.6171V4.768H58.7091V6.424H60.4251V7.324H58.7091ZM64.5394 9.688C64.5394 9.016 64.6754 8.428 64.9474 7.924C65.2194 7.412 65.5914 7.016 66.0634 6.736C66.5434 6.456 67.0754 6.316 67.6594 6.316C68.2354 6.316 68.7354 6.44 69.1594 6.688C69.5834 6.936 69.8994 7.248 70.1074 7.624V6.424H71.2114V13H70.1074V11.776C69.8914 12.16 69.5674 12.48 69.1354 12.736C68.7114 12.984 68.2154 13.108 67.6474 13.108C67.0634 13.108 66.5354 12.964 66.0634 12.676C65.5914 12.388 65.2194 11.984 64.9474 11.464C64.6754 10.944 64.5394 10.352 64.5394 9.688ZM70.1074 9.7C70.1074 9.204 70.0074 8.772 69.8074 8.404C69.6074 8.036 69.3354 7.756 68.9914 7.564C68.6554 7.364 68.2834 7.264 67.8754 7.264C67.4674 7.264 67.0954 7.36 66.7594 7.552C66.4234 7.744 66.1554 8.024 65.9554 8.392C65.7554 8.76 65.6554 9.192 65.6554 9.688C65.6554 10.192 65.7554 10.632 65.9554 11.008C66.1554 11.376 66.4234 11.66 66.7594 11.86C67.0954 12.052 67.4674 12.148 67.8754 12.148C68.2834 12.148 68.6554 12.052 68.9914 11.86C69.3354 11.66 69.6074 11.376 69.8074 11.008C70.0074 10.632 70.1074 10.196 70.1074 9.7ZM74.1488 4.12V13H73.0568V4.12H74.1488ZM77.1019 4.12V13H76.0099V4.12H77.1019Z" fill="#EB5757"/>
<path d="M8.99648 1.12887C11.7904 1.12887 14.3332 2.59699 15.75 4.97496V1.6875C15.75 1.37672 16.0031 1.125 16.3125 1.125C16.6219 1.125 16.875 1.37672 16.875 1.6875V6.1875C16.875 6.49687 16.6219 6.75 16.3125 6.75H11.8125C11.5031 6.75 11.25 6.49687 11.25 6.1875C11.25 5.87813 11.5031 5.625 11.8125 5.625H14.8307C13.623 3.54023 11.4223 2.25 9 2.25C5.27695 2.25 2.25 5.27695 2.25 9C2.25 12.723 5.27801 15.75 9 15.75C11.0911 15.75 13.0324 14.8039 14.3191 13.1541C14.5103 12.908 14.8634 12.8629 15.1091 13.0574C15.3535 13.2486 15.3969 13.6023 15.2058 13.8463C13.7011 15.7711 11.4335 16.8715 8.99367 16.8715C4.65469 16.8715 1.125 13.3418 1.125 9C1.125 4.6582 4.65469 1.12887 8.99648 1.12887Z" fill="#EB5757"/>
</svg>
