<svg width="20" height="18" viewBox="0 0 20 18" fill="none" xmlns="http://www.w3.org/2000/svg">
<path d="M20.0002 9C20.0002 9.37813 19.6699 9.6875 19.2591 9.6875H2.41584L8.69709 16.1027C8.97196 16.3834 8.94955 16.8186 8.64718 17.0734C8.50468 17.1898 8.32611 17.25 8.14754 17.25C7.94642 17.25 7.74535 17.1748 7.59933 17.0244L0.193078 9.46191C-0.0637081 9.20006 -0.0637081 8.79977 0.193078 8.53809L7.59933 0.975586C7.87566 0.693625 8.34441 0.674804 8.6462 0.928578C8.94857 1.18373 8.97098 1.61866 8.69611 1.89924L2.41584 8.3125H19.2596C19.6699 8.3125 20.0002 8.62187 20.0002 9Z" fill="#333333"/>
</svg>
