<svg width="25" height="25" viewBox="0 0 25 25" fill="none" xmlns="http://www.w3.org/2000/svg">
<path d="M12.4997 0C5.59637 0 0 5.59662 0 12.4998C0 19.403 5.59637 24.9999 12.4997 24.9999C19.403 24.9999 25 19.403 25 12.4998C24.9999 5.59662 19.403 0 12.4997 0ZM9.24731 8.77981C9.42023 8.60689 9.64673 8.52047 9.87323 8.52047C10.0997 8.52047 10.3261 8.60689 10.4989 8.77981L11.607 9.88773V9.56181V5.20645C11.607 4.71753 12.0032 4.32136 12.4921 4.32136C12.981 4.32136 13.3772 4.71753 13.3772 5.20645V9.56173V9.94757L13.763 9.56173L14.5452 8.77973C14.7181 8.60681 14.9444 8.52039 15.1709 8.52039C15.3974 8.52039 15.6239 8.60681 15.7968 8.77973C16.0094 8.99214 16.0903 9.28631 16.0412 9.56173C16.0412 9.56198 16.0409 9.56215 16.0409 9.5624C16.0373 9.58231 16.031 9.60148 16.026 9.62098C16.0184 9.65148 16.0103 9.68173 15.9992 9.71131C15.9919 9.73123 15.9834 9.75065 15.9745 9.77006C15.9607 9.80098 15.9447 9.83057 15.9272 9.85998C15.9179 9.87557 15.9093 9.89107 15.8989 9.90598C15.8686 9.94965 15.8355 9.99198 15.7966 10.0309L14.537 11.2905L13.1544 12.6731C12.9813 12.846 12.755 12.9318 12.5288 12.9318C12.5266 12.9318 12.5244 12.9318 12.5223 12.9318C12.5201 12.9318 12.5178 12.9318 12.5158 12.9318C12.2895 12.9318 12.0632 12.846 11.8901 12.6731L10.5075 11.2905L9.2479 10.0309C9.20898 9.99198 9.1759 9.94982 9.14606 9.90623C9.13548 9.8909 9.12681 9.87515 9.11731 9.85957C9.10006 9.8304 9.08423 9.80098 9.07039 9.77048C9.06131 9.75057 9.05264 9.7309 9.04531 9.71065C9.03473 9.68165 9.02673 9.65231 9.01914 9.62265C9.01398 9.60215 9.00723 9.58223 9.00356 9.56148C8.95373 9.28639 9.03439 8.99223 9.24731 8.77981ZM19.298 17.443H19.2977C19.2977 18.6378 18.1263 19.5737 16.6306 19.5737H8.36956C6.87413 19.5737 5.70246 18.6379 5.70246 17.443V11.6926C5.70246 10.6828 6.54063 9.86023 7.7028 9.62915C7.75314 10.1276 7.97147 10.5897 8.33064 10.9487L8.67297 11.291H8.36956C7.76414 11.291 7.43155 11.5927 7.43155 11.6926V17.443C7.43155 17.5431 7.76422 17.8446 8.36956 17.8446H16.6309C17.2363 17.8446 17.5689 17.5429 17.5689 17.443V11.6926C17.5689 11.5927 17.2362 11.291 16.6309 11.291H16.3709L16.7134 10.9484C17.0703 10.5918 17.288 10.1329 17.3398 9.63781C18.4799 9.88057 19.298 10.6953 19.298 11.6928V17.443Z" fill="#33333F"/>
</svg>
