<svg width="21" height="16" viewBox="0 0 21 16" fill="none" xmlns="http://www.w3.org/2000/svg">
<g clip-path="url(#clip0_755_8078)">
<path d="M20.5103 10.7148H18.5512V8.79297C18.5512 8.52763 18.3319 8.3125 18.0614 8.3125H16.1022C15.8317 8.3125 15.6124 8.52763 15.6124 8.79297V10.7148H13.6533C13.3828 10.7148 13.1635 10.93 13.1635 11.1953V13.1172C13.1635 13.3825 13.3828 13.5977 13.6533 13.5977H15.6124V15.5195C15.6124 15.7849 15.8317 16 16.1022 16H18.0614C18.3319 16 18.5512 15.7849 18.5512 15.5195V13.5977H20.5103C20.7808 13.5977 21.0001 13.3825 21.0001 13.1172V11.1953C21.0001 10.9311 20.7797 10.7148 20.5103 10.7148ZM7.93504 8.3125C10.2783 8.3125 12.1431 6.44828 12.1431 4.14844C12.1431 1.84859 10.2436 -0.015625 7.93504 -0.015625C5.59182 -0.015625 3.72696 1.84859 3.72696 4.14844C3.69023 6.44668 5.59223 8.3125 7.93504 8.3125ZM14.3063 14.8789H13.6533C12.6631 14.8789 11.8574 14.0885 11.8574 13.1172V11.1953C11.8574 10.7909 12.0288 10.3569 12.3019 10.0478C11.588 9.75791 10.8044 9.59375 9.97582 9.59375H5.90243C2.69841 9.59375 0.102539 11.9841 0.102539 14.931C0.102539 15.5235 0.620896 16 1.2617 16H14.3839C14.339 15.8479 14.3063 15.6877 14.3063 15.5195V14.8789Z" fill="#4A47A3"/>
</g>
<defs>
<clipPath id="clip0_755_8078">
<rect width="21" height="16" fill="white"/>
</clipPath>
</defs>
</svg>
