<svg width="21" height="16" viewBox="0 0 21 16" fill="none" xmlns="http://www.w3.org/2000/svg">
<g clip-path="url(#clip0_1_174)">
<path d="M20.5102 10.7148H18.551V8.79297C18.551 8.52763 18.3317 8.3125 18.0613 8.3125H16.1021C15.8316 8.3125 15.6123 8.52763 15.6123 8.79297V10.7148H13.6532C13.3827 10.7148 13.1634 10.93 13.1634 11.1953V13.1172C13.1634 13.3825 13.3827 13.5977 13.6532 13.5977H15.6123V15.5195C15.6123 15.7849 15.8316 16 16.1021 16H18.0613C18.3317 16 18.551 15.7849 18.551 15.5195V13.5977H20.5102C20.7807 13.5977 21 13.3825 21 13.1172V11.1953C21 10.9311 20.7796 10.7148 20.5102 10.7148ZM7.93492 8.3125C10.2781 8.3125 12.143 6.44828 12.143 4.14844C12.143 1.84859 10.2434 -0.015625 7.93492 -0.015625C5.5917 -0.015625 3.72684 1.84859 3.72684 4.14844C3.6901 6.44668 5.59211 8.3125 7.93492 8.3125ZM14.3062 14.8789H13.6532C12.663 14.8789 11.8573 14.0885 11.8573 13.1172V11.1953C11.8573 10.7909 12.0287 10.3569 12.3018 10.0478C11.5879 9.75791 10.8043 9.59375 9.9757 9.59375H5.90231C2.69829 9.59375 0.102417 11.9841 0.102417 14.931C0.102417 15.5235 0.620774 16 1.26158 16H14.3838C14.3389 15.8479 14.3062 15.6877 14.3062 15.5195V14.8789Z" fill="#36325A"/>
</g>
<defs>
<clipPath id="clip0_1_174">
<rect width="21" height="16" fill="white"/>
</clipPath>
</defs>
</svg>
